<?xml version="1.0" encoding="UTF-8"?>
<svg id="archive" class="shape-in" data-name="archive" xmlns="http://www.w3.org/2000/svg" viewBox="0 0 183.95 1450">
  <path d="M39.85,401.27v-65.2l-36.57-13.74v-37.2l176.94,64.93v41.11L3.28,452.24v-37.2l36.57-13.76ZM72.45,389l53.89-20.32-53.89-20.37v40.69Z" fill="currentcolor" stroke-width="0"/>
  <path d="M3.33,605.26v-44.86l63.68-35.04v-32.34H3.28v-39.27h176.96l.08,81.86c0,38.59-27.89,62.05-57.02,62.05-22.73,0-44.59-13.22-52.29-34.08L3.33,605.26ZM101.35,538.68c0,13.62,8.28,24.68,21.94,24.68s22.69-11.06,22.69-24.68v-45.66h-44.64v45.66Z" fill="currentcolor" stroke-width="0"/>
  <path d="M74.58,777.77C25.34,771.13,0,736.11,0,694.59c0-46.17,31.61-84.32,91.97-84.32s91.97,38.15,91.97,84.32c0,41.72-25.46,74.15-69.55,82.29v-40.77c22.08-4.65,32.92-21.17,32.92-41.52,0-26.16-17.68-46.17-55.35-46.17s-55.35,19.87-55.35,46.17c0,22.01,12.24,40.3,37.95,43.19v39.98Z" fill="currentcolor" stroke-width="0"/>
  <path d="M113.34,829.9v74.61h66.88v39.28H3.28v-39.28h74.67v-74.61H3.28v-39.28h176.94v39.28h-66.88Z" fill="currentcolor" stroke-width="0"/>
  <path d="M3.28,1000.4v-36.42h176.94v36.42H3.28Z" fill="currentcolor" stroke-width="0"/>
  <path d="M3.28,1067.26l176.92-58.47v37.21l-127.72,42.19,127.79,42.43v37.21L3.3,1109.34l-.02-42.08Z" fill="currentcolor" stroke-width="0"/>
  <path d="M180.22,1302.75h-35.39v-88.22h-31.5l-.32,73.49h-35.39l.32-73.49h-39.28v88.22H3.28v-126.5h176.94v126.5Z" fill="currentcolor" stroke-width="0"/>
</svg>