<?xml version="1.0" encoding="UTF-8"?>
<svg id="big01" data-name="big01" xmlns="http://www.w3.org/2000/svg" viewBox="0 0 2140 589.24">
    <path class="intro-shape-in" fill-rule="evenodd" clip-rule="evenodd" d="M1895.27,398.54v-47.07h167.09v235.34h-52.24v-188.27h-114.84Z" fill="currentcolor" stroke-width="0"/>
    <path class="intro-shape-in" fill-rule="evenodd" clip-rule="evenodd" d="M1748.92,400h86.72l18.28-48.65h49.48l-86.36,235.34h-54.68l-81.22-235.34h49.48l18.31,48.65ZM1765.25,443.35l27.03,71.67,27.09-71.67h-54.12Z" fill="currentcolor" stroke-width="0"/>
    <path class="intro-shape-in" fill-rule="evenodd" clip-rule="evenodd" d="M1481,586.69c-43.48,0-73.5-34.57-73.5-68.8,0-29.23,19.77-49.11,27.53-49.11-22.25,0-44.87-23.88-44.87-54.31s25.16-63.11,68.29-63.11h120.64v235.34h-98.09ZM1526.85,491.86h-50.31c-13.29,0-24.17,11.3-24.17,24.59s11.36,24.59,23.84,24.59h50.65v-49.17ZM1437.5,421.27c0,13.71,11.22,24.92,24.92,24.92h64.42v-49.15h-65.12c-13.38,0-24.22,10.85-24.23,24.22Z" fill="#000" stroke-width="0"/>
    <path class="intro-shape-in" fill-rule="evenodd" clip-rule="evenodd" d="M1324.21,351.36h48.44v235.34h-48.44v-235.34Z" fill="currentcolor" stroke-width="0"/>
    <path class="intro-shape-in" fill-rule="evenodd" clip-rule="evenodd" d="M1129.08,586.7v-47.07h117.34v-41.89l-97.74-.42v-47.07l97.74.42v-52.25h-117.34v-47.07h168.26v235.34h-168.26Z" fill="currentcolor" stroke-width="0"/>
    <path class="intro-shape-in" fill-rule="evenodd" clip-rule="evenodd" d="M890.26,586.7v-235.34h48.44l114.05,160.13,1.39-160.13h48.09v235.34h-48.09l-115.44-158.82v158.82h-48.44Z" fill="currentcolor" stroke-width="0"/>
    <path class="intro-shape-in" fill-rule="evenodd" clip-rule="evenodd" d="M651.54,586.7v-235.34h48.44l114.05,160.13,1.39-160.13h48.09v235.34h-48.09l-115.44-158.82v158.82h-48.44Z" fill="currentcolor" stroke-width="0"/>
    <path class="intro-shape-in" fill-rule="evenodd" clip-rule="evenodd" d="M495.1,400h86.72l18.28-48.65h49.48l-86.36,235.34h-54.68l-81.22-235.34h49.48l18.31,48.65ZM511.43,443.35l27.03,71.67,27.09-71.67h-54.12Z" fill="currentcolor" stroke-width="0"/>
    <path class="intro-shape-in" fill-rule="evenodd" clip-rule="evenodd" d="M258.22,398.54v-47.07h167.08v235.34h-52.24v-188.27h-114.84Z" fill="currentcolor" stroke-width="0"/>
    <path class="intro-shape-in" fill-rule="evenodd" clip-rule="evenodd" d="M77.64,586.7v-47.07h117.34v-41.89l-97.74-.42v-47.07l97.74.42v-52.25h-117.34v-47.07h168.26v235.34H77.64Z" fill="currentcolor" stroke-width="0"/>
    <path class="intro-shape-in" fill-rule="evenodd" clip-rule="evenodd" d="M1823.58,237.89c-61.87-.05-112.04-52.76-112.04-117.68S1761.71,2.57,1823.58,2.53h90.19v235.36h-90.19ZM1861.48,49.13h-39.67c-30.37,0-56.38,30.02-59.61,64.02,0,.06-.02.13-.03.19-.04.5-.03,1.01-.07,1.51-.13,1.77-.24,3.55-.24,5.36,0,.72.08,1.43.1,2.15,1.03,36.46,28.02,68.78,59.86,68.78h39.66V49.13Z" fill="#000" stroke-width="0"/>
    <path class="intro-shape-in" fill-rule="evenodd" clip-rule="evenodd" d="M1645.51,2.42h48.44v235.34h-48.44V2.42Z" fill="currentcolor" stroke-width="0"/>
    <path class="intro-shape-in" fill-rule="evenodd" clip-rule="evenodd" d="M1456.55,2.42l77.77,235.31h-49.5l-56.12-169.87-56.43,169.97h-49.5L1400.58,2.45l55.97-.03Z" fill="currentcolor" stroke-width="0"/>
    <path class="intro-shape-in" fill-rule="evenodd" clip-rule="evenodd" d="M1143.33,237.76v-47.07h117.34v-41.89l-97.74-.42v-47.07l97.74.42v-52.25h-117.34V2.42h168.26v235.34h-168.26Z" fill="currentcolor" stroke-width="0"/>
    <path class="intro-shape-in" fill-rule="evenodd" clip-rule="evenodd" d="M904.51,237.76V2.42h48.44l114.05,160.13,1.39-160.13h48.09v235.34h-48.09l-115.44-158.82v158.82h-48.44Z" fill="currentcolor" stroke-width="0"/>
    <path class="intro-shape-in" fill-rule="evenodd" clip-rule="evenodd" d="M709.49,237.76v-47.07h117.34v-41.89l-97.74-.42v-47.07l97.74.42v-52.25h-117.34V2.42h168.26v235.34h-168.26Z" fill="currentcolor" stroke-width="0"/>
    <path class="intro-shape-in" fill-rule="evenodd" clip-rule="evenodd" d="M629.84,49.49h-137.1V2.42h198.34v47.07l-135.37,141.21h135.37v47.07h-198.34v-47.07l137.1-141.21Z" fill="currentcolor" stroke-width="0"/>
    <path class="intro-shape-in" fill-rule="evenodd" clip-rule="evenodd" d="M425.71,2.42h48.44v235.34h-48.44V2.42Z" fill="currentcolor" stroke-width="0"/>
    <path class="intro-shape-in" fill-rule="evenodd" clip-rule="evenodd" d="M269.17,51.07h86.72l18.28-48.65h49.48l-86.36,235.34h-54.68L201.39,2.42h49.48l18.31,48.65ZM285.5,94.42l27.03,71.67,27.09-71.67h-54.12Z" fill="currentcolor" stroke-width="0"/>
</svg>