<?xml version="1.0" encoding="UTF-8"?>
<svg id="big02" data-name="big02" fill="none" xmlns="http://www.w3.org/2000/svg" viewBox="0 0 2140 589.24">
    <path class="intro-shape-in" fill-rule="evenodd" clip-rule="evenodd" d="M89.56,240.3V4.96h165.7v47.07h-113.45v41.89h87.35v47.07h-87.35v99.31h-52.25Z" fill="currentcolor" stroke-width="0"/>
    <path class="intro-shape-in" fill-rule="evenodd" clip-rule="evenodd" d="M481.94,122.33c0,80.69-50.76,122.33-112.16,122.33s-112.15-42.05-112.15-122.33S308.37,0,369.78,0s112.16,45.43,112.16,122.33ZM431.19,122.33c0-50.37-26.49-73.61-61.4-73.61s-61.4,23.51-61.4,73.61,26.42,73.62,61.4,73.62,61.4-23.08,61.4-73.62Z" fill="currentcolor" stroke-width="0"/>
    <path class="intro-shape-in" fill-rule="evenodd" clip-rule="evenodd" d="M702.24,240.24h-59.67l-46.6-84.7h-43.02v84.77h-52.23V4.94l108.88-.1c51.33,0,82.53,37.09,82.53,75.84,0,30.23-17.58,59.31-45.33,69.54l55.44,90.02ZM613.69,109.87c18.12,0,32.83-11.01,32.83-29.18s-14.7-30.18-32.83-30.18h-60.73v59.37h60.73Z" fill="currentcolor" stroke-width="0"/>
    <path class="intro-shape-in" fill-rule="evenodd" clip-rule="evenodd" d="M885.31,4.96v47.07h-117.34v41.89l97.74.42v47.07l-97.74-.42v52.25h117.34v47.07h-168.26V4.96h168.26Z" fill="currentcolor" stroke-width="0"/>
    <path class="intro-shape-in" fill-rule="evenodd" clip-rule="evenodd" d="M960.6,240.3h-48.44V4.96h48.44v235.34Z" fill="#000" stroke-width="0"/>
    <path class="intro-shape-in" fill-rule="evenodd" clip-rule="evenodd" d="M1200.64,124.57v115.38h-31.58l-4.41-20.85c-19.72,16.9-45.31,25.57-73.17,25.57-61.41,0-112.15-42.05-112.15-122.33S1030.07,0,1091.48,0c54.11,0,96.4,32.23,108.53,88.19h-52.34c-9.35-26.8-30.46-39.47-56.19-39.47-34.8,0-61.4,23.52-61.4,73.61s26.42,73.62,61.4,73.62c24.29,0,45.05-11.4,55.27-36.68h-42.24v-34.71h96.13Z" fill="#000" stroke-width="0"/>
    <path class="intro-shape-in" fill-rule="evenodd" clip-rule="evenodd" d="M1434.09,4.96v235.34h-48.44l-114.05-160.13-1.39,160.13h-48.09V4.96h48.09l115.44,158.82V4.96h48.44Z" fill="currentcolor" stroke-width="0"/>
    <path class="intro-shape-in" fill-rule="evenodd" clip-rule="evenodd" d="M1629.11,4.96v47.07h-117.34v41.89l97.74.42v47.07l-97.74-.42v52.25h117.34v47.07h-168.26V4.96h168.26Z" fill="currentcolor" stroke-width="0"/>
    <path class="intro-shape-in" fill-rule="evenodd" clip-rule="evenodd" d="M1857.48,240.24h-59.67l-46.6-84.7h-43.02v84.77h-52.23V4.94l108.88-.1c51.33,0,82.53,37.09,82.53,75.84,0,30.23-17.58,59.31-45.33,69.54l55.43,90.02ZM1768.93,109.87c18.12,0,32.82-11.01,32.82-29.18s-14.7-30.18-32.82-30.18h-60.73v59.37h60.73Z" fill="currentcolor" stroke-width="0"/>
    <path class="intro-shape-in" fill-rule="evenodd" clip-rule="evenodd" d="M2057.42,165.45c0,46.65-35.12,79.21-103.05,79.21-56.44,0-91.67-33.03-91.67-75.23v-4.56h56.07v4.56c0,20.3,21.85,27.32,43.39,27.32s41.68-5.94,41.68-27.32c0-17.34-25.01-23.3-54-30.18-37.07-8.8-83.25-19.78-83.25-63.63S1904.59.29,1963.35.29c54.16,0,92,31.01,92,75.33v4.5h-51.52v-4.5c0-17.81-23.19-28.48-45.67-28.48-15.02,0-37.28,7.1-37.28,24.18s23.97,21.9,51.72,28.06c37.79,8.49,84.81,19,84.81,66.07Z" fill="#000" stroke-width="0"/>
    <path class="intro-shape-in" fill-rule="evenodd" clip-rule="evenodd" d="M168.26,353.9v47.07H50.92v41.89l97.74.42v47.07l-97.74-.42v52.25h117.34v47.07H0v-235.34h168.26Z" fill="currentcolor" stroke-width="0"/>
    <path class="intro-shape-in" fill-rule="evenodd" clip-rule="evenodd" d="M257.17,589.24l-77.77-235.31h49.5l56.12,169.87,56.43-169.97h49.5l-77.82,235.39-55.97.03Z" fill="currentcolor" stroke-width="0"/>
    <path class="intro-shape-in" fill-rule="evenodd" clip-rule="evenodd" d="M570.4,353.9v47.07h-117.34v41.89l97.74.42v47.07l-97.74-.42v52.25h117.34v47.07h-168.26v-235.34h168.26Z" fill="currentcolor" stroke-width="0"/>
    <path class="intro-shape-in" fill-rule="evenodd" clip-rule="evenodd" d="M798.77,589.17h-59.67l-46.6-84.7h-43.02v84.77h-52.23v-235.37l108.88-.1c51.33,0,82.53,37.09,82.53,75.84,0,30.23-17.58,59.31-45.33,69.54l55.44,90.02ZM710.22,458.8c18.12,0,32.83-11.01,32.83-29.18s-14.7-30.18-32.83-30.18h-60.73v59.37h60.73Z" fill="currentcolor" stroke-width="0"/>
    <path class="intro-shape-in" fill-rule="evenodd" clip-rule="evenodd" d="M991.71,353.93l-80.46,141.17v94.02h-49.48v-94.02l-80.46-141.17h59.83l45.21,92.06,45.52-92.06h59.84Z" fill="currentcolor" stroke-width="0"/>
    <path class="intro-shape-in" fill-rule="evenodd" clip-rule="evenodd" d="M1318.25,353.7l-72.64,235.42h-55.97l-42.64-149.13-42.71,149.24-55.97.02-72.59-235.44h49.5l50.94,170.09,46.08-170.09h49.47l45.77,169.87,51.25-169.98h49.5Z" fill="currentcolor" stroke-width="0"/>
    <path class="intro-shape-in" fill-rule="evenodd" clip-rule="evenodd" d="M1381.96,442.85h99.24v-88.96h52.25v235.34h-52.25v-99.31h-99.24v99.31h-52.25v-235.34h52.25v88.96Z" fill="currentcolor" stroke-width="0"/>
    <path class="intro-shape-in" fill-rule="evenodd" clip-rule="evenodd" d="M1728.56,353.9v47.07h-117.34v41.89l97.74.42v47.07l-97.74-.42v52.25h117.34v47.07h-168.26v-235.34h168.26Z" fill="currentcolor" stroke-width="0"/>
    <path class="intro-shape-in" fill-rule="evenodd" clip-rule="evenodd" d="M1956.93,589.17h-59.67l-46.6-84.7h-43.02v84.77h-52.23v-235.37l108.88-.1c51.33,0,82.53,37.09,82.53,75.84,0,30.23-17.58,59.31-45.33,69.54l55.43,90.02ZM1868.38,458.8c18.12,0,32.82-11.01,32.82-29.18s-14.7-30.18-32.82-30.18h-60.73v59.37h60.73Z" fill="currentcolor" stroke-width="0"/>
    <path class="intro-shape-in" fill-rule="evenodd" clip-rule="evenodd" d="M2140,353.9v47.07h-117.34v41.89l97.74.42v47.07l-97.74-.42v52.25h117.34v47.07h-168.26v-235.34h168.26Z" fill="currentcolor" stroke-width="0"/>
</svg>