<?xml version="1.0" encoding="UTF-8"?>
<svg id="department" class="shape-in" data-name="department" xmlns="http://www.w3.org/2000/svg" viewBox="0 0 183.95 1450">
  <path d="M179.98,67.42c-.04,46.25-39.44,83.75-87.97,83.75S4.08,113.67,4.04,67.42V0h175.94v67.42h0ZM38.88,39.09v29.65c0,22.71,22.44,42.15,47.86,44.56.05,0,.09.02.14.02.37.03.75.02,1.13.05,1.32.1,2.65.18,4.01.18.54,0,1.07-.06,1.6-.07,27.26-.77,51.42-20.95,51.42-44.74v-29.65H38.88Z" fill="currentcolor" stroke-width="0"/>
  <path d="M179.98,237.98c0,38.37-27.73,61.69-56.69,61.69s-55.96-23.35-55.96-61.59,0-34.71,0-34.71H3.96v-39.05h175.94l.08,73.65ZM101.47,241.04c0,13.55,8.23,24.54,21.82,24.54s22.57-10.99,22.57-24.54v-37.66h-44.38v37.66h0Z" fill="currentcolor" stroke-width="0"/>
  <path d="M40.33,391.67v-64.83l-36.36-13.67v-36.99l175.92,64.56v40.87L3.96,442.35v-36.99l36.36-13.69ZM72.73,379.47l53.58-20.21-53.58-20.25v40.45Z" fill="currentcolor" stroke-width="0"/>
  <path d="M4.01,594.49v-44.6l63.32-34.83v-32.16H3.96v-39.05h175.94l.08,81.39c0,38.37-27.73,61.69-56.69,61.69-22.6,0-44.34-13.14-51.99-33.88l-67.29,41.44ZM101.47,528.3c0,13.55,8.23,24.54,21.82,24.54s22.57-10.99,22.57-24.54v-45.4h-44.38v45.4Z" fill="currentcolor" stroke-width="0"/>
  <path d="M179.89,758.79h-35.18v-61.29H3.96v-39.06h140.74v-61.34h35.18v161.68Z" fill="currentcolor" stroke-width="0"/>
  <path d="M179.89,952.39H3.96v-36.99h100.78L3.96,876.12v-29.27l100.88-39.32H3.96v-36.99h175.92v40.86l-138.43,50.08,138.43,50.07v40.83Z" fill="currentcolor" stroke-width="0"/>
  <path d="M179.89,1098.25h-35.19v-87.71h-31.31l-.31,73.07h-35.18l.31-73.07h-39.06v87.71H3.96v-125.78h175.92v125.78Z" fill="currentcolor" stroke-width="0"/>
  <path d="M179.89,1276.77H3.96v-36.21l119.7-85.25-119.7-1.04v-35.95h175.92v35.95l-118.72,86.29h118.72v36.21Z" fill="currentcolor" stroke-width="0"/>
  <path d="M179.89,1450h-35.18v-61.29H3.96v-39.06h140.74v-61.34h35.18v161.68Z" fill="currentcolor" stroke-width="0"/>
</svg>