<?xml version="1.0" encoding="UTF-8"?>
<svg id="department" data-name="department" xmlns="http://www.w3.org/2000/svg" viewBox="0 0 1440 1024">
  <path d="M790.36,51.35c-.03,32.4-27.63,58.67-61.63,58.67s-61.6-26.27-61.63-58.67V4.11h123.25v47.23h0ZM691.51,31.5v20.77c0,15.91,15.72,29.53,33.53,31.21.03,0,.07.01.1.01.26.02.53.02.79.04.93.07,1.86.13,2.81.13.38,0,.75-.04,1.12-.05,19.1-.54,36.02-14.67,36.02-31.34v-20.77h-74.37Z" fill="currentColor" stroke-width="0"/>
  <path d="M790.36,170.83c0,26.88-19.42,43.22-39.71,43.22s-39.2-16.36-39.2-43.14,0-24.31,0-24.31h-44.39v-27.35h123.25l.05,51.6ZM735.35,172.97c0,9.49,5.77,17.19,15.28,17.19s15.81-7.7,15.81-17.19v-26.38h-31.09v26.38h0Z" fill="currentColor" stroke-width="0"/>
  <path d="M692.52,278.49v-45.41l-25.47-9.57v-25.91l123.24,45.23v28.63l-123.24,42.53v-25.91l25.47-9.59ZM715.22,269.94l37.53-14.15-37.53-14.19v28.34Z" fill="currentColor" stroke-width="0"/>
  <path d="M667.08,420.58v-31.25l44.36-24.4v-22.53h-44.39v-27.35h123.25l.05,57.02c0,26.88-19.42,43.22-39.71,43.22-15.83,0-31.06-9.2-36.42-23.74l-47.14,29.03ZM735.35,374.21c0,9.49,5.77,17.19,15.28,17.19s15.81-7.7,15.81-17.19v-31.8h-31.09v31.8Z" fill="currentColor" stroke-width="0"/>
  <path d="M790.29,535.67h-24.65v-42.94h-98.59v-27.36h98.59v-42.97h24.65v113.26Z" fill="currentColor" stroke-width="0"/>
  <path d="M790.29,671.29h-123.24v-25.91h70.6l-70.6-27.52v-20.5l70.67-27.54h-70.67v-25.91h123.24v28.62l-96.97,35.08,96.97,35.08v28.6Z" fill="currentColor" stroke-width="0"/>
  <path d="M790.29,773.47h-24.65v-61.45h-21.94l-.22,51.19h-24.65l.22-51.19h-27.36v61.45h-24.65v-88.11h123.24v88.11Z" fill="currentColor" stroke-width="0"/>
  <path d="M790.29,898.53h-123.24v-25.36l83.85-59.72-83.85-.73v-25.19h123.24v25.19l-83.17,60.45h83.17v25.36Z" fill="currentColor" stroke-width="0"/>
  <path d="M790.29,1019.89h-24.65v-42.94h-98.59v-27.36h98.59v-42.97h24.65v113.26Z" fill="currentColor" stroke-width="0"/>
</svg>