<?xml version="1.0" encoding="UTF-8"?>
<svg id="main01" data-name="main01" fill="none" xmlns="http://www.w3.org/2000/svg" viewBox="0 0 3203.78 1718.44">
    <path class="intro-shape-middle" fill-rule="evenodd" clip-rule="evenodd" d="M143.86,798.09v27.67H45.64v-138.35h30.71v110.68h67.51Z" fill="#000" stroke-width="0"/>
    <path class="intro-shape-middle" fill-rule="evenodd" clip-rule="evenodd" d="M229.9,797.23h-50.98l-10.75,28.6h-29.09l50.77-138.35h32.14l47.75,138.35h-29.09l-10.76-28.6ZM220.3,771.74l-15.89-42.13-15.92,42.13h31.81Z" fill="#000" stroke-width="0"/>
    <path class="intro-shape-middle" fill-rule="evenodd" clip-rule="evenodd" d="M387.39,687.48c25.56,0,43.21,20.32,43.21,40.45,0,17.18-11.62,28.87-16.18,28.87,13.08,0,26.38,14.04,26.38,31.93s-14.79,37.1-40.15,37.1h-70.92v-138.35h57.66ZM412.96,784.72c0-8.06-6.6-14.65-14.65-14.65h-37.87v28.89h38.28c7.86,0,14.24-6.38,14.24-14.24ZM360.44,743.23h29.58c7.81,0,14.21-6.64,14.21-14.45s-6.68-14.45-14.01-14.45h-29.77v28.91Z" fill="#000" stroke-width="0"/>
    <path class="intro-shape-middle" fill-rule="evenodd" clip-rule="evenodd" d="M479.56,825.82h-28.48v-138.35h28.48v138.35Z" fill="#000" stroke-width="0"/>
    <path class="intro-shape-middle" fill-rule="evenodd" clip-rule="evenodd" d="M594.27,687.48v27.67h-68.98v24.63l57.46.25v27.67l-57.46-.25v30.71h68.98v27.67h-98.91v-138.35h98.91Z" fill="#000" stroke-width="0"/>
    <path class="intro-shape-middle" fill-rule="evenodd" clip-rule="evenodd" d="M734.66,687.48v138.35h-28.47l-67.04-94.13-.82,94.13h-28.27v-138.35h28.27l67.86,93.36v-93.36h28.47Z" fill="#000" stroke-width="0"/>
    <path class="intro-shape-middle" fill-rule="evenodd" clip-rule="evenodd" d="M875,687.48v138.35h-28.47l-67.05-94.13-.81,94.13h-28.27v-138.35h28.27l67.86,93.36v-93.36h28.47Z" fill="#000" stroke-width="0"/>
    <path class="intro-shape-middle" fill-rule="evenodd" clip-rule="evenodd" d="M966.95,797.23h-50.98l-10.75,28.6h-29.09l50.77-138.35h32.14l47.75,138.35h-29.09l-10.76-28.6ZM957.35,771.74l-15.89-42.13-15.92,42.13h31.81Z" fill="#000" stroke-width="0"/>
    <path class="intro-shape-middle" fill-rule="evenodd" clip-rule="evenodd" d="M1106.21,798.09v27.67h-98.22v-138.35h30.71v110.68h67.51Z" fill="#000" stroke-width="0"/>
    <path class="intro-shape-middle" fill-rule="evenodd" clip-rule="evenodd" d="M1212.36,687.48v27.67h-68.98v24.63l57.46.25v27.67l-57.46-.25v30.71h68.98v27.67h-98.91v-138.35h98.91Z" fill="#000" stroke-width="0"/>
    <path class="intro-shape-middle" fill-rule="evenodd" clip-rule="evenodd" d="M186.01,892.52c36.37.03,65.86,31.02,65.86,69.18s-29.49,69.15-65.86,69.18h-53.02v-138.36h53.02ZM163.72,1003.49h23.32c17.86,0,33.15-17.65,35.04-37.64,0-.04.01-.07.01-.11.02-.29.02-.59.04-.89.08-1.04.14-2.09.14-3.15,0-.43-.05-.84-.06-1.26-.61-21.44-16.47-40.44-35.19-40.44h-23.32v83.48Z" fill="#000" stroke-width="0"/>
    <path class="intro-shape-middle" fill-rule="evenodd" clip-rule="evenodd" d="M290.69,1030.94h-28.48v-138.35h28.48v138.35Z" fill="#000" stroke-width="0"/>
    <path class="intro-shape-middle" fill-rule="evenodd" clip-rule="evenodd" d="M401.77,1030.94l-45.72-138.33h29.1l32.99,99.86,33.18-99.92h29.1l-45.75,138.38-32.9.02Z" fill="#000" stroke-width="0"/>
    <path class="intro-shape-middle" fill-rule="evenodd" clip-rule="evenodd" d="M585.9,892.6v27.67h-68.98v24.63l57.46.25v27.67l-57.46-.25v30.71h68.98v27.67h-98.91v-138.35h98.91Z" fill="#000" stroke-width="0"/>
    <path class="intro-shape-middle" fill-rule="evenodd" clip-rule="evenodd" d="M726.29,892.6v138.35h-28.47l-67.05-94.13-.82,94.13h-28.27v-138.35h28.27l67.86,93.36v-93.36h28.47Z" fill="#000" stroke-width="0"/>
    <path class="intro-shape-middle" fill-rule="evenodd" clip-rule="evenodd" d="M840.93,892.6v27.67h-68.98v24.63l57.46.25v27.67l-57.46-.25v30.71h68.98v27.67h-98.91v-138.35h98.91Z" fill="#000" stroke-width="0"/>
    <path class="intro-shape-middle" fill-rule="evenodd" clip-rule="evenodd" d="M887.75,1003.28h80.6v27.67h-116.6v-27.67l79.58-83.01h-79.58v-27.67h116.6v27.67l-80.6,83.01Z" fill="#000" stroke-width="0"/>
    <path class="intro-shape-middle" fill-rule="evenodd" clip-rule="evenodd" d="M1007.74,1030.94h-28.48v-138.35h28.48v138.35Z" fill="#000" stroke-width="0"/>
    <path class="intro-shape-middle" fill-rule="evenodd" clip-rule="evenodd" d="M1099.77,1002.35h-50.98l-10.75,28.6h-29.09l50.77-138.35h32.14l47.75,138.35h-29.09l-10.76-28.6ZM1090.17,976.86l-15.89-42.13-15.92,42.13h31.81Z" fill="#000" stroke-width="0"/>
</svg>