<?xml version="1.0" encoding="UTF-8"?>
<svg id="main02" data-name="main02" fill="none" xmlns="http://www.w3.org/2000/svg" viewBox="0 0 3203.78 1718.44">
    <path class="intro-shape-out" fill-rule="evenodd" clip-rule="evenodd"  d="M52.65,827.25v-138.35h97.41v27.67h-66.69v24.63h51.35v27.67h-51.35v58.38h-30.71Z" fill="currentColor" stroke-width="0"/>
    <path class="intro-shape-out" fill-rule="evenodd" clip-rule="evenodd"  d="M283.31,757.9c0,47.43-29.84,71.92-65.93,71.92s-65.93-24.72-65.93-71.92,29.83-71.91,65.93-71.91,65.93,26.71,65.93,71.91ZM253.47,757.9c0-29.61-15.57-43.27-36.1-43.27s-36.1,13.82-36.1,43.27,15.53,43.28,36.1,43.28,36.1-13.57,36.1-43.28Z" fill="currentColor" stroke-width="0"/>
    <path class="intro-shape-out" fill-rule="evenodd" clip-rule="evenodd"  d="M412.81,827.21h-35.08l-27.39-49.79h-25.29v49.83h-30.71v-138.36l64.01-.06c30.18,0,48.52,21.81,48.52,44.58,0,17.77-10.33,34.87-26.65,40.88l32.59,52.92ZM360.76,750.57c10.65,0,19.3-6.47,19.3-17.16s-8.64-17.74-19.3-17.74h-35.7v34.9h35.7Z" fill="currentColor" stroke-width="0"/>
    <path class="intro-shape-out" fill-rule="evenodd" clip-rule="evenodd"  d="M520.43,688.9v27.67h-68.98v24.63l57.46.25v27.67l-57.46-.25v30.71h68.98v27.67h-98.91v-138.35h98.91Z" fill="currentColor" stroke-width="0"/>
    <path class="intro-shape-out" fill-rule="evenodd" clip-rule="evenodd"  d="M564.69,827.25h-28.48v-138.35h28.48v138.35Z" fill="currentColor" stroke-width="0"/>
    <path class="intro-shape-out" fill-rule="evenodd" clip-rule="evenodd"  d="M705.8,759.21v67.83h-18.57l-2.59-12.26c-11.6,9.94-26.64,15.03-43.01,15.03-36.1,0-65.93-24.72-65.93-71.92s29.83-71.91,65.93-71.91c31.81,0,56.67,18.94,63.8,51.85h-30.77c-5.5-15.76-17.91-23.2-33.03-23.2-20.46,0-36.1,13.83-36.1,43.28s15.53,43.28,36.1,43.28c14.28,0,26.48-6.7,32.49-21.56h-24.83v-20.4h56.51Z" fill="currentColor" stroke-width="0"/>
    <path class="intro-shape-out" fill-rule="evenodd" clip-rule="evenodd"  d="M843.03,688.9v138.35h-28.47l-67.04-94.13-.82,94.13h-28.27v-138.35h28.27l67.86,93.36v-93.36h28.47Z" fill="currentColor" stroke-width="0"/>
    <path class="intro-shape-out" fill-rule="evenodd" clip-rule="evenodd"  d="M957.67,688.9v27.67h-68.98v24.63l57.46.25v27.67l-57.46-.25v30.71h68.98v27.67h-98.91v-138.35h98.91Z" fill="currentColor" stroke-width="0"/>
    <path class="intro-shape-out" fill-rule="evenodd" clip-rule="evenodd"  d="M1091.92,827.21h-35.08l-27.39-49.79h-25.29v49.83h-30.71v-138.36l64.01-.06c30.17,0,48.52,21.81,48.52,44.58,0,17.77-10.33,34.87-26.64,40.88l32.59,52.92ZM1039.87,750.57c10.65,0,19.3-6.47,19.3-17.16s-8.64-17.74-19.3-17.74h-35.7v34.9h35.7Z" fill="currentColor" stroke-width="0"/>
    <path class="intro-shape-out" fill-rule="evenodd" clip-rule="evenodd"  d="M1209.46,783.25c0,27.42-20.65,46.57-60.58,46.57-33.18,0-53.89-19.42-53.89-44.22v-2.68h32.96v2.68c0,11.93,12.84,16.06,25.5,16.06s24.5-3.49,24.5-16.06c0-10.2-14.7-13.7-31.75-17.74-21.79-5.17-48.94-11.63-48.94-37.41s22.34-44.29,56.89-44.29c31.84,0,54.09,18.23,54.09,44.29v2.65h-30.28v-2.65c0-10.47-13.64-16.74-26.84-16.74-8.83,0-21.91,4.17-21.91,14.22s14.09,12.87,30.41,16.49c22.22,4.99,49.85,11.17,49.85,38.84Z" fill="currentColor" stroke-width="0"/>
    <path class="intro-shape-out" fill-rule="evenodd" clip-rule="evenodd"  d="M98.91,894.02v27.67H29.93v24.63l57.46.25v27.67l-57.46-.25v30.71h68.98v27.67H0v-138.35h98.91Z" fill="currentColor" stroke-width="0"/>
    <path class="intro-shape-out" fill-rule="evenodd" clip-rule="evenodd"  d="M151.18,1032.37l-45.72-138.33h29.1l32.99,99.86,33.18-99.92h29.1l-45.75,138.38-32.9.02Z" fill="currentColor" stroke-width="0"/>
    <path class="intro-shape-out" fill-rule="evenodd" clip-rule="evenodd"  d="M335.31,894.02v27.67h-68.98v24.63l57.46.25v27.67l-57.46-.25v30.71h68.98v27.67h-98.91v-138.35h98.91Z" fill="currentColor" stroke-width="0"/>
    <path class="intro-shape-out" fill-rule="evenodd" clip-rule="evenodd"  d="M469.56,1032.33h-35.08l-27.39-49.8h-25.29v49.83h-30.71v-138.36l64.01-.06c30.18,0,48.52,21.81,48.52,44.58,0,17.77-10.33,34.87-26.65,40.88l32.59,52.92ZM417.51,955.69c10.65,0,19.3-6.47,19.3-17.16s-8.64-17.74-19.3-17.74h-35.7v34.9h35.7Z" fill="currentColor" stroke-width="0"/>
    <path class="intro-shape-out" fill-rule="evenodd" clip-rule="evenodd"  d="M582.98,894.04l-47.3,82.99v55.27h-29.09v-55.27l-47.3-82.99h35.17l26.57,54.12,26.76-54.12h35.18Z" fill="currentColor" stroke-width="0"/>
    <path class="intro-shape-out" fill-rule="evenodd" clip-rule="evenodd"  d="M774.94,893.9l-42.7,138.39h-32.9l-25.06-87.67-25.11,87.73h-32.9s-42.67-138.4-42.67-138.4h29.1l29.95,99.99,27.09-99.99h29.08l26.91,99.86,30.13-99.92h29.1Z" fill="currentColor" stroke-width="0"/>
    <path class="intro-shape-out" fill-rule="evenodd" clip-rule="evenodd"  d="M812.38,946.32h58.34v-52.3h30.71v138.35h-30.71v-58.38h-58.34v58.38h-30.71v-138.35h30.71v52.3Z" fill="currentColor" stroke-width="0"/>
    <path class="intro-shape-out" fill-rule="evenodd" clip-rule="evenodd"  d="M1016.13,894.02v27.67h-68.98v24.63l57.46.25v27.67l-57.46-.25v30.71h68.98v27.67h-98.91v-138.35h98.91Z" fill="currentColor" stroke-width="0"/>
    <path class="intro-shape-out" fill-rule="evenodd" clip-rule="evenodd"  d="M1150.38,1032.33h-35.08l-27.39-49.8h-25.29v49.83h-30.71v-138.36l64.01-.06c30.17,0,48.52,21.81,48.52,44.58,0,17.77-10.33,34.87-26.64,40.88l32.59,52.92ZM1098.33,955.69c10.65,0,19.3-6.47,19.3-17.16s-8.64-17.74-19.3-17.74h-35.7v34.9h35.7Z" fill="currentColor" stroke-width="0"/>
    <path class="intro-shape-out" fill-rule="evenodd" clip-rule="evenodd"  d="M1258,894.02v27.67h-68.98v24.63l57.46.25v27.67l-57.46-.25v30.71h68.98v27.67h-98.91v-138.35h98.91Z" fill="currentColor" stroke-width="0"/>
</svg>