<?xml version="1.0" encoding="UTF-8"?>
<svg id="venues" class="shape-in" data-name="venues" xmlns="http://www.w3.org/2000/svg" viewBox="0 0 183.95 1450">
  <path d="M3.39,383.63l176.92-58.47v37.21l-127.72,42.19,127.79,42.43v37.21L3.41,425.71l-.02-42.08Z" fill="currentcolor" stroke-width="0"/>
  <path d="M180.33,619.12h-35.39v-88.22h-31.5l-.32,73.49h-35.39l.32-73.49h-39.28v88.22H3.39v-126.5h176.94v126.5Z" fill="currentcolor" stroke-width="0"/>
  <path d="M180.33,798.67H3.39v-36.42l120.39-85.75-120.39-1.04v-36.16h176.94v36.16l-119.41,86.79h119.41v36.42Z" fill="currentcolor" stroke-width="0"/>
  <path d="M180.57,962.4h-109.22C32.27,962.4.11,940.75.11,889.6s32.16-72.78,71.23-72.78h109.22v34.66h-108.84s-1.29.01-1.29.01c-27.83,0-35.48,20.69-35.48,38.06s7.65,38.06,35.57,38.06h1.21v.02h108.83v34.78Z" fill="currentcolor" stroke-width="0"/>
  <path d="M180.33,1107.28h-35.39v-88.22h-31.5l-.32,73.49h-35.39l.32-73.49h-39.28v88.22H3.39v-126.5h176.94v126.5Z" fill="currentcolor" stroke-width="0"/>
  <path d="M59.67,1267.96c-35.07,0-59.56-26.4-59.56-77.48,0-42.43,24.83-68.92,56.56-68.92h3.43v42.16h-3.43c-15.26,0-20.54,16.43-20.54,32.62s4.46,31.34,20.54,31.34c13.04,0,17.52-18.8,22.69-40.6,6.62-27.87,14.87-62.59,47.84-62.59s56.64,28.57,56.64,72.75c0,40.72-23.32,69.17-56.64,69.17h-3.39v-38.73h3.39c13.39,0,21.41-17.44,21.41-34.33,0-11.29-5.34-28.03-18.18-28.03s-16.47,18.02-21.1,38.89c-6.39,28.42-14.29,63.76-49.67,63.76Z" fill="currentcolor" stroke-width="0"/>
</svg>